<svg version="1.1" xmlns="http://www.w3.org/2000/svg" xmlns:xlink="http://www.w3.org/1999/xlink" x="0px" y="0px"
	 viewBox="0 0 13 15" style="enable-background:new 0 0 13 15;" xml:space="preserve">
<path d="M1,3C0.4,3,0,3.4,0,4s0.4,1,1,1V3z M12,5c0.6,0,1-0.4,1-1s-0.4-1-1-1V5z M2.9,3.6c0,0.6,0.4,1,1,1
	c0.6,0,1-0.4,1-1H2.9z M5.2,1V0V1z M7.8,1V0V1z M8.1,3.6c0,0.6,0.4,1,1,1c0.6,0,1-0.4,1-1H8.1z M6,7c0-0.6-0.4-1-1-1S4,6.4,4,7H6z
	 M4,11c0,0.6,0.4,1,1,1s1-0.4,1-1H4z M9,7c0-0.6-0.4-1-1-1S7,6.4,7,7H9z M7,11c0,0.6,0.4,1,1,1s1-0.4,1-1H7z M1,5h11V3H1V5z
	 M4.9,3.6V2.3h-2v1.3H4.9z M4.9,2.3c0-0.1,0-0.2,0.1-0.2L3.6,0.7c-0.4,0.4-0.7,1-0.7,1.6H4.9z M5,2.1C5.1,2,5.1,2,5.2,2V0
	C4.6,0,4,0.2,3.6,0.7L5,2.1z M5.2,2h2.6V0H5.2V2z M7.8,2C7.9,2,7.9,2,8,2.1l1.4-1.4C9,0.2,8.4,0,7.8,0V2z M8,2.1
	C8,2.1,8.1,2.2,8.1,2.3h2c0-0.6-0.2-1.2-0.7-1.6L8,2.1z M8.1,2.3v1.3h2V2.3H8.1z M4,7v4h2V7H4z M7,7v4h2V7H7z M10,4v8h2V4H10z M9,13
	H4v2h5V13z M3,12V4H1v8H3z M4,13c-0.6,0-1-0.4-1-1H1c0,1.7,1.3,3,3,3V13z M10,12c0,0.6-0.4,1-1,1v2c1.7,0,3-1.3,3-3H10z"/>
</svg>
