<svg version="1.1" xmlns="http://www.w3.org/2000/svg" xmlns:xlink="http://www.w3.org/1999/xlink" x="0px" y="0px"
	 viewBox="0 0 14 14" style="enable-background:new 0 0 14 14;" xml:space="preserve">
<path d="M9.3,1.6L8.6,0.9v0L9.3,1.6z M10.9,1V0V1z M13,3.1h1H13z M12.4,4.7L11.7,4l0,0L12.4,4.7z M5.2,11.9l0.3,1
	c0.2,0,0.3-0.1,0.4-0.3L5.2,11.9z M1,13l-1-0.3c-0.1,0.3,0,0.7,0.3,1c0.3,0.3,0.6,0.4,1,0.3L1,13z M2.1,8.8L1.4,8.1
	C1.3,8.2,1.2,8.4,1.2,8.6L2.1,8.8z M10,2.3c0.1-0.1,0.2-0.2,0.4-0.2L9.7,0.2c-0.4,0.2-0.7,0.4-1,0.7L10,2.3z M10.4,2.1
	C10.6,2,10.7,2,10.9,2V0C10.4,0,10,0.1,9.7,0.2L10.4,2.1z M10.9,2c0.2,0,0.3,0,0.4,0.1l0.8-1.8C11.7,0.1,11.3,0,10.9,0V2z M11.3,2.1
	c0.1,0.1,0.3,0.1,0.4,0.2l1.4-1.4c-0.3-0.3-0.6-0.5-1-0.7L11.3,2.1z M11.7,2.3c0.1,0.1,0.2,0.2,0.2,0.4l1.8-0.8
	c-0.2-0.4-0.4-0.7-0.7-1L11.7,2.3z M11.9,2.7C12,2.8,12,3,12,3.1h2c0-0.4-0.1-0.8-0.2-1.2L11.9,2.7z M12,3.1c0,0.2,0,0.3-0.1,0.4
	l1.8,0.8C13.9,4,14,3.6,14,3.1H12z M11.9,3.6c-0.1,0.1-0.1,0.3-0.2,0.4l1.4,1.4c0.3-0.3,0.5-0.6,0.7-1L11.9,3.6z M11.7,4l-7.2,7.2
	l1.4,1.4l7.2-7.2L11.7,4z M4.9,10.9L0.7,12L1.3,14l4.2-1.1L4.9,10.9z M2,13.3l1.1-4.2L1.2,8.6L0,12.7L2,13.3z M2.8,9.5L10,2.3
	L8.6,0.9L1.4,8.1L2.8,9.5z M7,4l3,3l1.4-1.4l-3-3L7,4z"/>
</svg>
