<svg version="1.1" xmlns="http://www.w3.org/2000/svg" xmlns:xlink="http://www.w3.org/1999/xlink" x="0px" y="0px"
	 viewBox="0 0 12 14.9" style="enable-background:new 0 0 12 14.9;" xml:space="preserve">
<path d="M11,14.9c-0.2,0-0.4-0.1-0.6-0.2L6,11.5l-4.4,3.2c-0.3,0.2-0.7,0.2-1,0.1C0.2,14.6,0,14.2,0,13.9V2.4
	c0-0.6,0.3-1.3,0.7-1.7C1.2,0.3,1.8,0,2.4,0h7.1c0.6,0,1.3,0.3,1.7,0.7C11.7,1.2,12,1.8,12,2.4v11.4c0,0.4-0.2,0.7-0.5,0.9
	C11.3,14.8,11.2,14.9,11,14.9z M6,9.3c0.2,0,0.4,0.1,0.6,0.2l3.4,2.4V2.4c0-0.1,0-0.2-0.1-0.3C9.8,2,9.7,2,9.6,2H2.4
	C2.3,2,2.2,2,2.1,2.1S2,2.3,2,2.4v9.5l3.4-2.4C5.6,9.3,5.8,9.3,6,9.3z"/>
</svg>
