<svg version="1.1" xmlns="http://www.w3.org/2000/svg" xmlns:xlink="http://www.w3.org/1999/xlink" x="0px" y="0px"
	 viewBox="0 0 16.7 16.2" style="enable-background:new 0 0 16.7 16.2;" xml:space="preserve">
<path d="M15.7,16.2c-0.3,0-0.5-0.1-0.7-0.3l-3.5-3.5C10.2,13.4,8.7,14,7,14c-3.9,0-7-3.1-7-7c0-3.9,3.1-7,7-7
	c3.9,0,7,3.1,7,7c0,1.5-0.5,2.8-1.2,3.9l3.6,3.6c0.4,0.4,0.4,1,0,1.4C16.2,16.1,15.9,16.2,15.7,16.2z M7,2C4.2,2,2,4.2,2,7
	s2.2,5,5,5c1.4,0,2.6-0.6,3.5-1.5c0-0.1,0.1-0.2,0.2-0.3c0.1-0.1,0.1-0.1,0.2-0.1C11.6,9.3,12,8.2,12,7C12,4.2,9.8,2,7,2z"/>
</svg>
