<svg version="1.1" xmlns="http://www.w3.org/2000/svg" xmlns:xlink="http://www.w3.org/1999/xlink" x="0px" y="0px"
	 viewBox="0 0 8 15" style="enable-background:new 0 0 8 15;" xml:space="preserve">
<path d="M4.7,14.7c-0.4,0.4-1,0.4-1.4,0l-3-3c-0.4-0.4-0.4-1,0-1.4c0.4-0.4,1-0.4,1.4,0l3,3C5.1,13.7,5.1,14.3,4.7,14.7
	z"/>
<path d="M3.3,14.7c0.4,0.4,1,0.4,1.4,0l3-3c0.4-0.4,0.4-1,0-1.4c-0.4-0.4-1-0.4-1.4,0l-3,3C2.9,13.7,2.9,14.3,3.3,14.7z
	"/>
<path d="M4,14c-0.6,0-1-0.4-1-1V3c0-0.6,0.4-1,1-1s1,0.4,1,1v10C5,13.6,4.5,14,4,14z"/>
<path d="M4.7,0.3c-0.4-0.4-1-0.4-1.4,0l-3,3c-0.4,0.4-0.4,1,0,1.4s1,0.4,1.4,0l3-3C5.1,1.3,5.1,0.7,4.7,0.3z"/>
<path d="M3.3,0.3c0.4-0.4,1-0.4,1.4,0l3,3c0.4,0.4,0.4,1,0,1.4s-1,0.4-1.4,0l-3-3C2.9,1.3,2.9,0.7,3.3,0.3z"/>
</svg>
